<mxfile host="Electron" modified="2024-01-11T05:15:23.495Z" agent="Mozilla/5.0 (Windows NT 10.0; Win64; x64) AppleWebKit/537.36 (KHTML, like Gecko) draw.io/22.1.2 Chrome/114.0.5735.289 Electron/25.9.4 Safari/537.36" etag="ibBeV5sq1ZOIXn2TFAiY" version="22.1.2" type="device">
  <diagram name="第 1 页" id="nSUBrpKyuRt2u2faW6E1">
    <mxGraphModel dx="2089" dy="753" grid="0" gridSize="10" guides="1" tooltips="1" connect="1" arrows="0" fold="1" page="0" pageScale="1" pageWidth="827" pageHeight="1169" background="#ffffff" math="0" shadow="0">
      <root>
        <mxCell id="0" />
        <mxCell id="1" parent="0" />
        <mxCell id="pwK9RfVmoR3s9cLt3GSg-125" style="edgeStyle=orthogonalEdgeStyle;rounded=0;orthogonalLoop=1;jettySize=auto;html=1;exitX=0.5;exitY=1;exitDx=0;exitDy=0;endArrow=none;endFill=0;" parent="1" edge="1">
          <mxGeometry relative="1" as="geometry">
            <mxPoint x="1721.4147058823535" y="1169.0294117647059" as="targetPoint" />
            <mxPoint x="1721.6500000000003" y="360.5" as="sourcePoint" />
          </mxGeometry>
        </mxCell>
        <mxCell id="pwK9RfVmoR3s9cLt3GSg-121" style="edgeStyle=orthogonalEdgeStyle;rounded=0;orthogonalLoop=1;jettySize=auto;html=1;exitX=0.5;exitY=1;exitDx=0;exitDy=0;endArrow=none;endFill=0;" parent="1" edge="1">
          <mxGeometry relative="1" as="geometry">
            <mxPoint x="1913.4147058823535" y="1169.5294117647059" as="targetPoint" />
            <mxPoint x="1913.6500000000003" y="361" as="sourcePoint" />
          </mxGeometry>
        </mxCell>
        <mxCell id="pwK9RfVmoR3s9cLt3GSg-122" style="edgeStyle=orthogonalEdgeStyle;rounded=0;orthogonalLoop=1;jettySize=auto;html=1;exitX=0.5;exitY=1;exitDx=0;exitDy=0;endArrow=none;endFill=0;" parent="1" edge="1">
          <mxGeometry relative="1" as="geometry">
            <mxPoint x="2105.4147058823532" y="1169.0294117647059" as="targetPoint" />
            <mxPoint x="2105.65" y="360.5" as="sourcePoint" />
          </mxGeometry>
        </mxCell>
        <mxCell id="pwK9RfVmoR3s9cLt3GSg-119" style="edgeStyle=orthogonalEdgeStyle;rounded=0;orthogonalLoop=1;jettySize=auto;html=1;exitX=0.5;exitY=1;exitDx=0;exitDy=0;endArrow=none;endFill=0;" parent="1" edge="1">
          <mxGeometry relative="1" as="geometry">
            <mxPoint x="2297.4147058823532" y="1169.0294117647059" as="targetPoint" />
            <mxPoint x="2297.65" y="360.5" as="sourcePoint" />
          </mxGeometry>
        </mxCell>
        <mxCell id="pwK9RfVmoR3s9cLt3GSg-120" style="edgeStyle=orthogonalEdgeStyle;rounded=0;orthogonalLoop=1;jettySize=auto;html=1;exitX=0.5;exitY=1;exitDx=0;exitDy=0;endArrow=none;endFill=0;" parent="1" edge="1">
          <mxGeometry relative="1" as="geometry">
            <mxPoint x="2489.4147058823532" y="1169.5294117647059" as="targetPoint" />
            <mxPoint x="2489.65" y="361" as="sourcePoint" />
          </mxGeometry>
        </mxCell>
        <mxCell id="pwK9RfVmoR3s9cLt3GSg-116" style="edgeStyle=orthogonalEdgeStyle;rounded=0;orthogonalLoop=1;jettySize=auto;html=1;exitX=0.5;exitY=1;exitDx=0;exitDy=0;endArrow=none;endFill=0;" parent="1" edge="1">
          <mxGeometry relative="1" as="geometry">
            <mxPoint x="2681.4147058823532" y="1169.5294117647059" as="targetPoint" />
            <mxPoint x="2681.65" y="361" as="sourcePoint" />
          </mxGeometry>
        </mxCell>
        <mxCell id="_FwaFgntot6xtJ_25Qmm-23" value="&lt;b style=&quot;&quot;&gt;&lt;font face=&quot;標楷體&quot; style=&quot;font-size: 25px;&quot;&gt;433MHz接收&lt;/font&gt;&lt;/b&gt;" style="rounded=1;whiteSpace=wrap;html=1;" parent="1" vertex="1">
          <mxGeometry x="-219" y="222.5" width="128" height="75" as="geometry" />
        </mxCell>
        <mxCell id="_FwaFgntot6xtJ_25Qmm-25" style="edgeStyle=orthogonalEdgeStyle;rounded=0;orthogonalLoop=1;jettySize=auto;html=1;exitX=0.75;exitY=1;exitDx=0;exitDy=0;entryX=0.52;entryY=0.004;entryDx=0;entryDy=0;entryPerimeter=0;endArrow=none;endFill=0;" parent="1" edge="1">
          <mxGeometry relative="1" as="geometry">
            <mxPoint x="-152.44000000000005" y="357.8000000000002" as="targetPoint" />
            <mxPoint x="-152.75" y="297.5" as="sourcePoint" />
          </mxGeometry>
        </mxCell>
        <mxCell id="_FwaFgntot6xtJ_25Qmm-27" value="&lt;b style=&quot;&quot;&gt;&lt;font face=&quot;標楷體&quot; style=&quot;font-size: 25px;&quot;&gt;433MHz傳送&lt;/font&gt;&lt;/b&gt;" style="rounded=1;whiteSpace=wrap;html=1;" parent="1" vertex="1">
          <mxGeometry x="-359" y="222.5" width="128" height="75" as="geometry" />
        </mxCell>
        <mxCell id="_FwaFgntot6xtJ_25Qmm-28" style="edgeStyle=orthogonalEdgeStyle;rounded=0;orthogonalLoop=1;jettySize=auto;html=1;exitX=0.75;exitY=1;exitDx=0;exitDy=0;entryX=0.52;entryY=0.004;entryDx=0;entryDy=0;entryPerimeter=0;endArrow=none;endFill=0;" parent="1" target="_FwaFgntot6xtJ_25Qmm-29" edge="1">
          <mxGeometry relative="1" as="geometry">
            <mxPoint x="-293.0357142857142" y="489.92857142857156" as="targetPoint" />
            <mxPoint x="-292.75" y="297.5" as="sourcePoint" />
          </mxGeometry>
        </mxCell>
        <mxCell id="_FwaFgntot6xtJ_25Qmm-29" value="&lt;b style=&quot;&quot;&gt;&lt;font face=&quot;Times New Roman&quot; style=&quot;font-size: 28px;&quot;&gt;FS1000A&lt;/font&gt;&lt;/b&gt;" style="rounded=1;whiteSpace=wrap;html=1;" parent="1" vertex="1">
          <mxGeometry x="-359" y="357.5" width="128" height="75" as="geometry" />
        </mxCell>
        <mxCell id="JO4Gg0vbeXPxmbEgFReM-6" style="edgeStyle=orthogonalEdgeStyle;rounded=0;orthogonalLoop=1;jettySize=auto;html=1;exitX=0.5;exitY=1;exitDx=0;exitDy=0;entryX=0.5;entryY=0;entryDx=0;entryDy=0;endArrow=none;endFill=0;" parent="1" source="_FwaFgntot6xtJ_25Qmm-43" target="JO4Gg0vbeXPxmbEgFReM-2" edge="1">
          <mxGeometry relative="1" as="geometry" />
        </mxCell>
        <mxCell id="_FwaFgntot6xtJ_25Qmm-43" value="&lt;span style=&quot;font-size: 28px;&quot;&gt;&lt;b&gt;&lt;font face=&quot;標楷體&quot;&gt;編碼&lt;/font&gt;&lt;/b&gt;&lt;/span&gt;" style="rounded=1;whiteSpace=wrap;html=1;" parent="1" vertex="1">
          <mxGeometry x="-499" y="222.5" width="128" height="75" as="geometry" />
        </mxCell>
        <mxCell id="JO4Gg0vbeXPxmbEgFReM-2" value="&lt;span style=&quot;font-size: 28px;&quot;&gt;&lt;b&gt;&lt;font face=&quot;Times New Roman&quot;&gt;HT12E&lt;/font&gt;&lt;/b&gt;&lt;/span&gt;" style="rounded=1;whiteSpace=wrap;html=1;" parent="1" vertex="1">
          <mxGeometry x="-499" y="357.5" width="128" height="75" as="geometry" />
        </mxCell>
        <mxCell id="ViVVrlRUVqNIaIjdkwC9-2" value="&lt;b style=&quot;&quot;&gt;&lt;font face=&quot;Times New Roman&quot; style=&quot;font-size: 25px;&quot;&gt;XY-MK-5V&lt;/font&gt;&lt;/b&gt;" style="rounded=1;whiteSpace=wrap;html=1;" parent="1" vertex="1">
          <mxGeometry x="-219" y="357.5" width="128" height="75" as="geometry" />
        </mxCell>
        <mxCell id="ViVVrlRUVqNIaIjdkwC9-11" style="rounded=0;orthogonalLoop=1;jettySize=auto;html=1;exitX=0.5;exitY=1;exitDx=0;exitDy=0;entryX=0.5;entryY=0;entryDx=0;entryDy=0;endArrow=none;endFill=0;" parent="1" source="ViVVrlRUVqNIaIjdkwC9-4" target="ViVVrlRUVqNIaIjdkwC9-5" edge="1">
          <mxGeometry relative="1" as="geometry" />
        </mxCell>
        <mxCell id="ViVVrlRUVqNIaIjdkwC9-4" value="&lt;span style=&quot;font-size: 28px;&quot;&gt;&lt;b&gt;&lt;font face=&quot;標楷體&quot;&gt;解碼&lt;/font&gt;&lt;/b&gt;&lt;/span&gt;" style="rounded=1;whiteSpace=wrap;html=1;" parent="1" vertex="1">
          <mxGeometry x="-639" y="222.5" width="128" height="75" as="geometry" />
        </mxCell>
        <mxCell id="ViVVrlRUVqNIaIjdkwC9-5" value="&lt;span style=&quot;font-size: 28px;&quot;&gt;&lt;b&gt;&lt;font face=&quot;Times New Roman&quot;&gt;HT12D&lt;/font&gt;&lt;/b&gt;&lt;/span&gt;" style="rounded=1;whiteSpace=wrap;html=1;" parent="1" vertex="1">
          <mxGeometry x="-639" y="357.5" width="128" height="75" as="geometry" />
        </mxCell>
        <mxCell id="ViVVrlRUVqNIaIjdkwC9-7" style="rounded=0;orthogonalLoop=1;jettySize=auto;html=1;exitX=0.5;exitY=1;exitDx=0;exitDy=0;entryX=0.5;entryY=0;entryDx=0;entryDy=0;endArrow=none;endFill=0;" parent="1" source="ViVVrlRUVqNIaIjdkwC9-6" target="_FwaFgntot6xtJ_25Qmm-27" edge="1">
          <mxGeometry relative="1" as="geometry" />
        </mxCell>
        <mxCell id="ViVVrlRUVqNIaIjdkwC9-8" style="rounded=0;orthogonalLoop=1;jettySize=auto;html=1;exitX=0.5;exitY=1;exitDx=0;exitDy=0;entryX=0.5;entryY=0;entryDx=0;entryDy=0;endArrow=none;endFill=0;" parent="1" source="ViVVrlRUVqNIaIjdkwC9-6" target="_FwaFgntot6xtJ_25Qmm-23" edge="1">
          <mxGeometry relative="1" as="geometry" />
        </mxCell>
        <mxCell id="ViVVrlRUVqNIaIjdkwC9-9" style="rounded=0;orthogonalLoop=1;jettySize=auto;html=1;exitX=0.5;exitY=1;exitDx=0;exitDy=0;entryX=0.5;entryY=0;entryDx=0;entryDy=0;endArrow=none;endFill=0;" parent="1" source="ViVVrlRUVqNIaIjdkwC9-6" target="_FwaFgntot6xtJ_25Qmm-43" edge="1">
          <mxGeometry relative="1" as="geometry" />
        </mxCell>
        <mxCell id="ViVVrlRUVqNIaIjdkwC9-10" style="rounded=0;orthogonalLoop=1;jettySize=auto;html=1;exitX=0.5;exitY=1;exitDx=0;exitDy=0;entryX=0.5;entryY=0;entryDx=0;entryDy=0;endArrow=none;endFill=0;" parent="1" source="ViVVrlRUVqNIaIjdkwC9-6" target="ViVVrlRUVqNIaIjdkwC9-4" edge="1">
          <mxGeometry relative="1" as="geometry" />
        </mxCell>
        <mxCell id="ViVVrlRUVqNIaIjdkwC9-6" value="&lt;font size=&quot;1&quot; face=&quot;Times New Roman&quot; style=&quot;&quot;&gt;&lt;b style=&quot;font-size: 34px;&quot;&gt;RF Module&lt;/b&gt;&lt;/font&gt;" style="rounded=1;whiteSpace=wrap;html=1;fillColor=#f5f5f5;strokeColor=#666666;fontColor=#333333;" parent="1" vertex="1">
          <mxGeometry x="-434" y="88" width="130" height="74.5" as="geometry" />
        </mxCell>
        <mxCell id="ViVVrlRUVqNIaIjdkwC9-17" value="&lt;b style=&quot;&quot;&gt;&lt;font face=&quot;Times New Roman&quot; style=&quot;font-size: 42px;&quot;&gt;UART&lt;/font&gt;&lt;/b&gt;" style="rounded=1;whiteSpace=wrap;html=1;flipH=0;" parent="1" vertex="1">
          <mxGeometry x="2618" y="285.5" width="128" height="75" as="geometry" />
        </mxCell>
        <mxCell id="ViVVrlRUVqNIaIjdkwC9-18" value="&lt;b style=&quot;&quot;&gt;&lt;font face=&quot;Times New Roman&quot; style=&quot;font-size: 28px;&quot;&gt;Tera term&lt;/font&gt;&lt;/b&gt;" style="rounded=1;whiteSpace=wrap;html=1;" parent="1" vertex="1">
          <mxGeometry x="409" y="361" width="128" height="75" as="geometry" />
        </mxCell>
        <mxCell id="ViVVrlRUVqNIaIjdkwC9-27" value="&lt;b style=&quot;&quot;&gt;&lt;font face=&quot;Times New Roman&quot; style=&quot;font-size: 25px;&quot;&gt;XY-MK-5V&lt;/font&gt;&lt;/b&gt;" style="rounded=1;whiteSpace=wrap;html=1;" parent="1" vertex="1">
          <mxGeometry x="1658" y="285.5" width="128" height="75" as="geometry" />
        </mxCell>
        <mxCell id="ViVVrlRUVqNIaIjdkwC9-29" value="&lt;span style=&quot;font-size: 28px;&quot;&gt;&lt;b&gt;&lt;font face=&quot;Times New Roman&quot;&gt;HT12E&lt;/font&gt;&lt;/b&gt;&lt;/span&gt;" style="rounded=1;whiteSpace=wrap;html=1;" parent="1" vertex="1">
          <mxGeometry x="2426" y="285.5" width="128" height="75" as="geometry" />
        </mxCell>
        <mxCell id="ViVVrlRUVqNIaIjdkwC9-30" value="&lt;b style=&quot;&quot;&gt;&lt;font face=&quot;Times New Roman&quot; style=&quot;font-size: 28px;&quot;&gt;FS1000A&lt;/font&gt;&lt;/b&gt;" style="rounded=1;whiteSpace=wrap;html=1;" parent="1" vertex="1">
          <mxGeometry x="2234" y="285.5" width="128" height="75" as="geometry" />
        </mxCell>
        <mxCell id="pwK9RfVmoR3s9cLt3GSg-115" style="edgeStyle=orthogonalEdgeStyle;rounded=0;orthogonalLoop=1;jettySize=auto;html=1;exitX=0.5;exitY=1;exitDx=0;exitDy=0;endArrow=none;endFill=0;" parent="1" source="ViVVrlRUVqNIaIjdkwC9-31" edge="1">
          <mxGeometry relative="1" as="geometry">
            <mxPoint x="2873.764705882353" y="1169.5294117647059" as="targetPoint" />
          </mxGeometry>
        </mxCell>
        <mxCell id="ViVVrlRUVqNIaIjdkwC9-31" value="&lt;b style=&quot;&quot;&gt;&lt;font face=&quot;Times New Roman&quot; style=&quot;font-size: 28px;&quot;&gt;Tera term&lt;/font&gt;&lt;/b&gt;" style="rounded=1;whiteSpace=wrap;html=1;" parent="1" vertex="1">
          <mxGeometry x="2810" y="285.5" width="128" height="75" as="geometry" />
        </mxCell>
        <mxCell id="pwK9RfVmoR3s9cLt3GSg-84" style="rounded=0;orthogonalLoop=1;jettySize=auto;html=1;exitX=1;exitY=1;exitDx=0;exitDy=0;entryX=0;entryY=0;entryDx=0;entryDy=0;strokeWidth=2;" parent="1" source="ViVVrlRUVqNIaIjdkwC9-32" target="ViVVrlRUVqNIaIjdkwC9-33" edge="1">
          <mxGeometry relative="1" as="geometry" />
        </mxCell>
        <mxCell id="ViVVrlRUVqNIaIjdkwC9-32" value="" style="rounded=0;whiteSpace=wrap;html=1;" parent="1" vertex="1">
          <mxGeometry x="1707" y="434" width="30" height="70" as="geometry" />
        </mxCell>
        <mxCell id="pwK9RfVmoR3s9cLt3GSg-87" style="rounded=0;orthogonalLoop=1;jettySize=auto;html=1;exitX=1;exitY=1;exitDx=0;exitDy=0;entryX=0;entryY=0;entryDx=0;entryDy=0;strokeWidth=2;fillColor=#dae8fc;strokeColor=#6c8ebf;" parent="1" source="ViVVrlRUVqNIaIjdkwC9-33" target="pwK9RfVmoR3s9cLt3GSg-85" edge="1">
          <mxGeometry relative="1" as="geometry" />
        </mxCell>
        <mxCell id="pwK9RfVmoR3s9cLt3GSg-88" value="&lt;font size=&quot;1&quot; color=&quot;#000099&quot;&gt;&lt;b style=&quot;font-size: 16px;&quot;&gt;*data*&lt;/b&gt;&lt;/font&gt;" style="edgeLabel;html=1;align=center;verticalAlign=middle;resizable=0;points=[];" parent="pwK9RfVmoR3s9cLt3GSg-87" vertex="1" connectable="0">
          <mxGeometry x="-0.0829" y="5" relative="1" as="geometry">
            <mxPoint x="5" y="2" as="offset" />
          </mxGeometry>
        </mxCell>
        <mxCell id="ViVVrlRUVqNIaIjdkwC9-33" value="&lt;font size=&quot;1&quot; face=&quot;標楷體&quot; style=&quot;&quot;&gt;&lt;b style=&quot;font-size: 22px;&quot;&gt;解碼&lt;/b&gt;&lt;/font&gt;" style="rounded=0;whiteSpace=wrap;html=1;" parent="1" vertex="1">
          <mxGeometry x="1899" y="505.5" width="30" height="70" as="geometry" />
        </mxCell>
        <mxCell id="ViVVrlRUVqNIaIjdkwC9-37" value="&lt;b&gt;&lt;font face=&quot;標楷體&quot; style=&quot;font-size: 22px;&quot;&gt;接收訊號&lt;/font&gt;&lt;/b&gt;" style="text;html=1;strokeColor=none;fillColor=none;align=center;verticalAlign=middle;whiteSpace=wrap;rounded=0;" parent="1" vertex="1">
          <mxGeometry x="1692" y="454" width="60" height="30" as="geometry" />
        </mxCell>
        <mxCell id="pwK9RfVmoR3s9cLt3GSg-105" style="rounded=0;orthogonalLoop=1;jettySize=auto;html=1;exitX=0;exitY=1;exitDx=0;exitDy=0;entryX=1;entryY=0;entryDx=0;entryDy=0;strokeWidth=2;fillColor=#fff2cc;strokeColor=#d6b656;" parent="1" source="ViVVrlRUVqNIaIjdkwC9-41" target="ViVVrlRUVqNIaIjdkwC9-55" edge="1">
          <mxGeometry relative="1" as="geometry" />
        </mxCell>
        <mxCell id="ViVVrlRUVqNIaIjdkwC9-41" value="&lt;b&gt;&lt;font face=&quot;標楷體&quot; style=&quot;font-size: 22px;&quot;&gt;編碼&lt;/font&gt;&lt;/b&gt;" style="rounded=0;whiteSpace=wrap;html=1;" parent="1" vertex="1">
          <mxGeometry x="2475" y="642" width="30" height="70" as="geometry" />
        </mxCell>
        <mxCell id="pwK9RfVmoR3s9cLt3GSg-109" style="rounded=0;orthogonalLoop=1;jettySize=auto;html=1;exitX=1;exitY=1;exitDx=0;exitDy=0;entryX=0;entryY=0;entryDx=0;entryDy=0;" parent="1" source="ViVVrlRUVqNIaIjdkwC9-45" target="ViVVrlRUVqNIaIjdkwC9-51" edge="1">
          <mxGeometry relative="1" as="geometry" />
        </mxCell>
        <mxCell id="ViVVrlRUVqNIaIjdkwC9-45" value="" style="rounded=0;whiteSpace=wrap;html=1;" parent="1" vertex="1">
          <mxGeometry x="2667" y="642" width="30" height="70" as="geometry" />
        </mxCell>
        <mxCell id="ViVVrlRUVqNIaIjdkwC9-47" value="&lt;b&gt;&lt;font face=&quot;標楷體&quot; style=&quot;font-size: 21px;&quot;&gt;接收傳送資料&lt;/font&gt;&lt;/b&gt;" style="text;html=1;strokeColor=none;fillColor=none;align=center;verticalAlign=middle;whiteSpace=wrap;rounded=0;" parent="1" vertex="1">
          <mxGeometry x="2607.5" y="662" width="149" height="30" as="geometry" />
        </mxCell>
        <mxCell id="ViVVrlRUVqNIaIjdkwC9-51" value="" style="rounded=0;whiteSpace=wrap;html=1;" parent="1" vertex="1">
          <mxGeometry x="2859" y="712" width="30" height="70" as="geometry" />
        </mxCell>
        <mxCell id="ViVVrlRUVqNIaIjdkwC9-52" value="&lt;b&gt;&lt;font face=&quot;標楷體&quot; style=&quot;font-size: 22px;&quot;&gt;顯示&lt;/font&gt;&lt;/b&gt;" style="text;html=1;strokeColor=none;fillColor=none;align=center;verticalAlign=middle;whiteSpace=wrap;rounded=0;" parent="1" vertex="1">
          <mxGeometry x="2844" y="732" width="60" height="30" as="geometry" />
        </mxCell>
        <mxCell id="ViVVrlRUVqNIaIjdkwC9-58" value="" style="rounded=0;whiteSpace=wrap;html=1;" parent="1" vertex="1">
          <mxGeometry x="1707" y="782" width="30" height="70" as="geometry" />
        </mxCell>
        <mxCell id="ViVVrlRUVqNIaIjdkwC9-61" value="&lt;b&gt;&lt;font face=&quot;標楷體&quot; style=&quot;font-size: 22px;&quot;&gt;接收訊號&lt;/font&gt;&lt;/b&gt;" style="text;html=1;strokeColor=none;fillColor=none;align=center;verticalAlign=middle;whiteSpace=wrap;rounded=0;" parent="1" vertex="1">
          <mxGeometry x="1692" y="802" width="60" height="30" as="geometry" />
        </mxCell>
        <mxCell id="ViVVrlRUVqNIaIjdkwC9-63" value="&lt;b style=&quot;border-color: var(--border-color); font-family: 標楷體; font-size: 22px;&quot;&gt;解碼&lt;/b&gt;" style="rounded=0;whiteSpace=wrap;html=1;" parent="1" vertex="1">
          <mxGeometry x="1899" y="852" width="30" height="70" as="geometry" />
        </mxCell>
        <mxCell id="ViVVrlRUVqNIaIjdkwC9-64" value="" style="endArrow=classic;html=1;rounded=0;entryX=0;entryY=0;entryDx=0;entryDy=0;endFill=1;strokeWidth=2;fillColor=#fff2cc;strokeColor=#d6b656;exitX=1;exitY=1;exitDx=0;exitDy=0;" parent="1" source="ViVVrlRUVqNIaIjdkwC9-58" target="ViVVrlRUVqNIaIjdkwC9-63" edge="1">
          <mxGeometry width="50" height="50" relative="1" as="geometry">
            <mxPoint x="1749" y="851" as="sourcePoint" />
            <mxPoint x="1640" y="700" as="targetPoint" />
          </mxGeometry>
        </mxCell>
        <mxCell id="ViVVrlRUVqNIaIjdkwC9-70" value="" style="endArrow=none;html=1;rounded=0;exitX=0;exitY=0;exitDx=0;exitDy=0;entryX=1;entryY=0;entryDx=0;entryDy=0;" parent="1" source="ViVVrlRUVqNIaIjdkwC9-41" target="ViVVrlRUVqNIaIjdkwC9-41" edge="1">
          <mxGeometry width="50" height="50" relative="1" as="geometry">
            <mxPoint x="2404" y="630" as="sourcePoint" />
            <mxPoint x="2454" y="580" as="targetPoint" />
          </mxGeometry>
        </mxCell>
        <mxCell id="ViVVrlRUVqNIaIjdkwC9-71" value="" style="endArrow=none;html=1;rounded=0;exitX=0;exitY=0;exitDx=0;exitDy=0;entryX=1;entryY=0;entryDx=0;entryDy=0;strokeWidth=2;" parent="1" source="ViVVrlRUVqNIaIjdkwC9-41" target="ViVVrlRUVqNIaIjdkwC9-41" edge="1">
          <mxGeometry width="50" height="50" relative="1" as="geometry">
            <mxPoint x="2404" y="630" as="sourcePoint" />
            <mxPoint x="2454" y="580" as="targetPoint" />
          </mxGeometry>
        </mxCell>
        <mxCell id="ViVVrlRUVqNIaIjdkwC9-73" value="" style="endArrow=classic;html=1;rounded=0;exitX=1;exitY=1;exitDx=0;exitDy=0;endFill=1;strokeWidth=2;fillColor=#fff2cc;strokeColor=#d6b656;entryX=0;entryY=0;entryDx=0;entryDy=0;" parent="1" source="ViVVrlRUVqNIaIjdkwC9-63" target="pwK9RfVmoR3s9cLt3GSg-106" edge="1">
          <mxGeometry width="50" height="50" relative="1" as="geometry">
            <mxPoint x="2109" y="922" as="sourcePoint" />
            <mxPoint x="2083" y="922" as="targetPoint" />
          </mxGeometry>
        </mxCell>
        <mxCell id="ViVVrlRUVqNIaIjdkwC9-76" value="" style="rounded=0;whiteSpace=wrap;html=1;" parent="1" vertex="1">
          <mxGeometry x="2667" y="992" width="30" height="70" as="geometry" />
        </mxCell>
        <mxCell id="ViVVrlRUVqNIaIjdkwC9-77" value="&lt;b&gt;&lt;font face=&quot;標楷體&quot; style=&quot;font-size: 21px;&quot;&gt;接收傳送資料&lt;/font&gt;&lt;/b&gt;" style="text;html=1;strokeColor=none;fillColor=none;align=center;verticalAlign=middle;whiteSpace=wrap;rounded=0;" parent="1" vertex="1">
          <mxGeometry x="2607.5" y="1012" width="149" height="30" as="geometry" />
        </mxCell>
        <mxCell id="ViVVrlRUVqNIaIjdkwC9-79" value="" style="rounded=0;whiteSpace=wrap;html=1;" parent="1" vertex="1">
          <mxGeometry x="2859" y="1063" width="30" height="70" as="geometry" />
        </mxCell>
        <mxCell id="ViVVrlRUVqNIaIjdkwC9-80" value="&lt;b&gt;&lt;font face=&quot;標楷體&quot; style=&quot;font-size: 22px;&quot;&gt;顯示&lt;/font&gt;&lt;/b&gt;" style="text;html=1;strokeColor=none;fillColor=none;align=center;verticalAlign=middle;whiteSpace=wrap;rounded=0;" parent="1" vertex="1">
          <mxGeometry x="2844" y="1083" width="60" height="30" as="geometry" />
        </mxCell>
        <mxCell id="ViVVrlRUVqNIaIjdkwC9-89" value="" style="endArrow=none;html=1;rounded=0;entryX=0.5;entryY=1;entryDx=0;entryDy=0;strokeWidth=1;exitX=0.5;exitY=0;exitDx=0;exitDy=0;" parent="1" source="ViVVrlRUVqNIaIjdkwC9-55" edge="1">
          <mxGeometry width="50" height="50" relative="1" as="geometry">
            <mxPoint x="2298.5" y="1000.5" as="sourcePoint" />
            <mxPoint x="2297.5" y="715.5" as="targetPoint" />
          </mxGeometry>
        </mxCell>
        <mxCell id="_FwaFgntot6xtJ_25Qmm-9" value="&lt;font face=&quot;Times New Roman&quot; style=&quot;font-size: 70px;&quot;&gt;&lt;b&gt;PC&lt;/b&gt;&lt;/font&gt;" style="rounded=1;whiteSpace=wrap;html=1;fillColor=#f5f5f5;strokeColor=#666666;fontColor=#333333;" parent="1" vertex="1">
          <mxGeometry x="338" y="88" width="130" height="74.5" as="geometry" />
        </mxCell>
        <mxCell id="_FwaFgntot6xtJ_25Qmm-13" value="&lt;b style=&quot;border-color: var(--border-color);&quot;&gt;&lt;font style=&quot;border-color: var(--border-color); font-size: 42px;&quot; face=&quot;Times New Roman&quot;&gt;UART&lt;/font&gt;&lt;/b&gt;" style="rounded=1;whiteSpace=wrap;html=1;" parent="1" vertex="1">
          <mxGeometry x="262" y="361" width="128" height="75" as="geometry" />
        </mxCell>
        <mxCell id="7rCqF8YEuQ9GgZZeLj8m-2" value="" style="endArrow=none;html=1;rounded=0;entryX=0.5;entryY=1;entryDx=0;entryDy=0;exitX=0.5;exitY=0;exitDx=0;exitDy=0;" parent="1" source="_FwaFgntot6xtJ_25Qmm-13" target="_FwaFgntot6xtJ_25Qmm-9" edge="1">
          <mxGeometry width="50" height="50" relative="1" as="geometry">
            <mxPoint x="203" y="483.5" as="sourcePoint" />
            <mxPoint x="253" y="433.5" as="targetPoint" />
          </mxGeometry>
        </mxCell>
        <mxCell id="7rCqF8YEuQ9GgZZeLj8m-3" value="" style="endArrow=none;html=1;rounded=0;entryX=0.5;entryY=0;entryDx=0;entryDy=0;exitX=0.5;exitY=1;exitDx=0;exitDy=0;" parent="1" source="_FwaFgntot6xtJ_25Qmm-9" target="ViVVrlRUVqNIaIjdkwC9-18" edge="1">
          <mxGeometry width="50" height="50" relative="1" as="geometry">
            <mxPoint x="203" y="483.5" as="sourcePoint" />
            <mxPoint x="253" y="433.5" as="targetPoint" />
          </mxGeometry>
        </mxCell>
        <mxCell id="pwK9RfVmoR3s9cLt3GSg-8" value="&lt;b style=&quot;&quot;&gt;&lt;font face=&quot;Times New Roman&quot; style=&quot;font-size: 42px;&quot;&gt;UART&lt;/font&gt;&lt;/b&gt;" style="rounded=1;whiteSpace=wrap;html=1;" parent="1" vertex="1">
          <mxGeometry x="115" y="360.5" width="128" height="75" as="geometry" />
        </mxCell>
        <mxCell id="pwK9RfVmoR3s9cLt3GSg-9" value="&lt;font face=&quot;Times New Roman&quot;&gt;&lt;span style=&quot;font-size: 70px;&quot;&gt;&lt;b&gt;PS&lt;/b&gt;&lt;/span&gt;&lt;/font&gt;" style="rounded=1;whiteSpace=wrap;html=1;fillColor=#f5f5f5;strokeColor=#666666;fontColor=#333333;" parent="1" vertex="1">
          <mxGeometry x="115" y="88" width="130" height="74.5" as="geometry" />
        </mxCell>
        <mxCell id="pwK9RfVmoR3s9cLt3GSg-12" value="" style="endArrow=none;html=1;rounded=0;entryX=0.5;entryY=0;entryDx=0;entryDy=0;exitX=0.5;exitY=1;exitDx=0;exitDy=0;" parent="1" source="pwK9RfVmoR3s9cLt3GSg-9" target="pwK9RfVmoR3s9cLt3GSg-8" edge="1">
          <mxGeometry width="50" height="50" relative="1" as="geometry">
            <mxPoint x="-91" y="483" as="sourcePoint" />
            <mxPoint x="-41" y="433" as="targetPoint" />
          </mxGeometry>
        </mxCell>
        <mxCell id="pwK9RfVmoR3s9cLt3GSg-67" style="edgeStyle=orthogonalEdgeStyle;rounded=0;orthogonalLoop=1;jettySize=auto;html=1;exitX=1;exitY=0.5;exitDx=0;exitDy=0;entryX=0;entryY=0.5;entryDx=0;entryDy=0;strokeWidth=2;" parent="1" source="pwK9RfVmoR3s9cLt3GSg-22" target="pwK9RfVmoR3s9cLt3GSg-28" edge="1">
          <mxGeometry relative="1" as="geometry" />
        </mxCell>
        <mxCell id="pwK9RfVmoR3s9cLt3GSg-22" value="" style="rounded=0;whiteSpace=wrap;html=1;fillColor=#f5f5f5;fontColor=#333333;strokeColor=#666666;" parent="1" vertex="1">
          <mxGeometry x="-6" y="1015" width="314" height="120" as="geometry" />
        </mxCell>
        <mxCell id="pwK9RfVmoR3s9cLt3GSg-71" style="edgeStyle=orthogonalEdgeStyle;rounded=0;orthogonalLoop=1;jettySize=auto;html=1;exitX=0.5;exitY=1;exitDx=0;exitDy=0;entryX=0.5;entryY=0;entryDx=0;entryDy=0;strokeWidth=2;" parent="1" source="pwK9RfVmoR3s9cLt3GSg-28" target="pwK9RfVmoR3s9cLt3GSg-32" edge="1">
          <mxGeometry relative="1" as="geometry">
            <mxPoint x="417" y="882" as="targetPoint" />
          </mxGeometry>
        </mxCell>
        <mxCell id="pwK9RfVmoR3s9cLt3GSg-28" value="&lt;font face=&quot;Times New Roman&quot; style=&quot;font-size: 20px;&quot;&gt;PS&lt;/font&gt;" style="rounded=0;whiteSpace=wrap;html=1;fillColor=#f5f5f5;fontColor=#333333;strokeColor=#666666;" parent="1" vertex="1">
          <mxGeometry x="357" y="792" width="120" height="60" as="geometry" />
        </mxCell>
        <mxCell id="pwK9RfVmoR3s9cLt3GSg-32" value="&lt;font face=&quot;Times New Roman&quot; style=&quot;font-size: 20px;&quot;&gt;PC&lt;/font&gt;" style="rounded=0;whiteSpace=wrap;html=1;fillColor=#f5f5f5;fontColor=#333333;strokeColor=#666666;" parent="1" vertex="1">
          <mxGeometry x="357" y="972" width="120" height="60" as="geometry" />
        </mxCell>
        <mxCell id="pwK9RfVmoR3s9cLt3GSg-54" style="rounded=0;orthogonalLoop=1;jettySize=auto;html=1;exitX=1;exitY=0.5;exitDx=0;exitDy=0;entryX=0;entryY=0.5;entryDx=0;entryDy=0;fillColor=#fff2cc;strokeColor=#d6b656;strokeWidth=2;" parent="1" source="pwK9RfVmoR3s9cLt3GSg-33" target="pwK9RfVmoR3s9cLt3GSg-52" edge="1">
          <mxGeometry relative="1" as="geometry" />
        </mxCell>
        <mxCell id="pwK9RfVmoR3s9cLt3GSg-33" value="&lt;font face=&quot;標楷體&quot; style=&quot;font-size: 17px;&quot;&gt;TX:433MHz發射FS1000A&lt;/font&gt;" style="rounded=0;whiteSpace=wrap;html=1;" parent="1" vertex="1">
          <mxGeometry x="4" y="867" width="120" height="60" as="geometry" />
        </mxCell>
        <mxCell id="pwK9RfVmoR3s9cLt3GSg-56" style="edgeStyle=orthogonalEdgeStyle;rounded=0;orthogonalLoop=1;jettySize=auto;html=1;exitX=0.5;exitY=1;exitDx=0;exitDy=0;exitPerimeter=0;entryX=0.5;entryY=0;entryDx=0;entryDy=0;strokeWidth=2;fillColor=#dae8fc;strokeColor=#6c8ebf;" parent="1" source="pwK9RfVmoR3s9cLt3GSg-36" target="pwK9RfVmoR3s9cLt3GSg-55" edge="1">
          <mxGeometry relative="1" as="geometry" />
        </mxCell>
        <mxCell id="pwK9RfVmoR3s9cLt3GSg-36" value="&lt;font face=&quot;標楷體&quot; style=&quot;font-size: 18px;&quot;&gt;433MHz遙控器&lt;/font&gt;" style="strokeWidth=1;html=1;shape=mxgraph.flowchart.start_1;whiteSpace=wrap;" parent="1" vertex="1">
          <mxGeometry x="171" y="792" width="119" height="60" as="geometry" />
        </mxCell>
        <mxCell id="pwK9RfVmoR3s9cLt3GSg-39" value="&lt;font face=&quot;標楷體&quot; style=&quot;font-size: 18px;&quot;&gt;Tera term&lt;/font&gt;" style="strokeWidth=1;html=1;shape=mxgraph.flowchart.start_1;whiteSpace=wrap;" parent="1" vertex="1">
          <mxGeometry x="359.5" y="1054" width="115" height="60" as="geometry" />
        </mxCell>
        <mxCell id="pwK9RfVmoR3s9cLt3GSg-42" value="&lt;font style=&quot;font-size: 17px;&quot;&gt;PL&lt;/font&gt;" style="text;html=1;strokeColor=none;fillColor=none;align=center;verticalAlign=middle;whiteSpace=wrap;rounded=0;" parent="1" vertex="1">
          <mxGeometry x="272" y="1109" width="30" height="30" as="geometry" />
        </mxCell>
        <mxCell id="pwK9RfVmoR3s9cLt3GSg-47" value="" style="endArrow=classic;html=1;rounded=0;fillColor=#f8cecc;strokeColor=#b85450;exitX=0.5;exitY=0;exitDx=0;exitDy=0;entryX=0.5;entryY=1;entryDx=0;entryDy=0;strokeWidth=2;" parent="1" target="pwK9RfVmoR3s9cLt3GSg-33" edge="1">
          <mxGeometry width="50" height="50" relative="1" as="geometry">
            <mxPoint x="64.00000000000045" y="942.0000000000002" as="sourcePoint" />
            <mxPoint x="74" y="818" as="targetPoint" />
          </mxGeometry>
        </mxCell>
        <mxCell id="pwK9RfVmoR3s9cLt3GSg-49" value="&lt;font face=&quot;標楷體&quot; style=&quot;font-size: 17px;&quot;&gt;(TX發送)&lt;br&gt;FS1000A&lt;/font&gt;" style="rounded=0;whiteSpace=wrap;html=1;" parent="1" vertex="1">
          <mxGeometry x="4" y="867" width="120" height="60" as="geometry" />
        </mxCell>
        <mxCell id="pwK9RfVmoR3s9cLt3GSg-52" value="&lt;font style=&quot;font-size: 14px;&quot; face=&quot;標楷體&quot;&gt;HT12D(解碼)&lt;/font&gt;" style="rounded=0;whiteSpace=wrap;html=1;" parent="1" vertex="1">
          <mxGeometry x="189" y="942" width="83" height="60" as="geometry" />
        </mxCell>
        <mxCell id="pwK9RfVmoR3s9cLt3GSg-53" value="&lt;font style=&quot;font-size: 14px;&quot; face=&quot;標楷體&quot;&gt;HT12E(編碼)&lt;/font&gt;" style="rounded=0;whiteSpace=wrap;html=1;" parent="1" vertex="1">
          <mxGeometry x="22.5" y="942" width="83" height="60" as="geometry" />
        </mxCell>
        <mxCell id="pwK9RfVmoR3s9cLt3GSg-57" style="edgeStyle=orthogonalEdgeStyle;rounded=0;orthogonalLoop=1;jettySize=auto;html=1;exitX=0.5;exitY=1;exitDx=0;exitDy=0;entryX=0.5;entryY=0;entryDx=0;entryDy=0;strokeWidth=2;fillColor=#dae8fc;strokeColor=#6c8ebf;" parent="1" source="pwK9RfVmoR3s9cLt3GSg-55" target="pwK9RfVmoR3s9cLt3GSg-52" edge="1">
          <mxGeometry relative="1" as="geometry" />
        </mxCell>
        <mxCell id="pwK9RfVmoR3s9cLt3GSg-55" value="&lt;font face=&quot;標楷體&quot; style=&quot;font-size: 17px;&quot;&gt;(RX接收)&lt;br&gt;XY-MK-5V&lt;/font&gt;" style="rounded=0;whiteSpace=wrap;html=1;" parent="1" vertex="1">
          <mxGeometry x="170.5" y="867" width="120" height="60" as="geometry" />
        </mxCell>
        <mxCell id="pwK9RfVmoR3s9cLt3GSg-72" style="rounded=0;orthogonalLoop=1;jettySize=auto;html=1;exitX=1;exitY=0.25;exitDx=0;exitDy=0;entryX=1;entryY=0.5;entryDx=0;entryDy=0;strokeWidth=2;fillColor=#dae8fc;strokeColor=#6c8ebf;" parent="1" source="pwK9RfVmoR3s9cLt3GSg-60" target="pwK9RfVmoR3s9cLt3GSg-22" edge="1">
          <mxGeometry relative="1" as="geometry" />
        </mxCell>
        <mxCell id="pwK9RfVmoR3s9cLt3GSg-73" style="rounded=0;orthogonalLoop=1;jettySize=auto;html=1;exitX=1;exitY=0.75;exitDx=0;exitDy=0;entryX=1;entryY=0.5;entryDx=0;entryDy=0;fillColor=#fff2cc;strokeColor=#d6b656;strokeWidth=2;" parent="1" source="pwK9RfVmoR3s9cLt3GSg-60" target="pwK9RfVmoR3s9cLt3GSg-22" edge="1">
          <mxGeometry relative="1" as="geometry" />
        </mxCell>
        <mxCell id="pwK9RfVmoR3s9cLt3GSg-60" value="&lt;font style=&quot;&quot; face=&quot;標楷體&quot;&gt;&lt;font style=&quot;font-size: 33px;&quot;&gt;Buffer&lt;/font&gt;&lt;br&gt;&lt;/font&gt;" style="rounded=0;whiteSpace=wrap;html=1;" parent="1" vertex="1">
          <mxGeometry x="37" y="1049" width="235" height="60" as="geometry" />
        </mxCell>
        <mxCell id="pwK9RfVmoR3s9cLt3GSg-65" style="edgeStyle=orthogonalEdgeStyle;rounded=0;orthogonalLoop=1;jettySize=auto;html=1;exitX=0.5;exitY=0;exitDx=0;exitDy=0;entryX=0.5;entryY=1;entryDx=0;entryDy=0;fillColor=#f8cecc;strokeColor=#b85450;strokeWidth=2;" parent="1" target="pwK9RfVmoR3s9cLt3GSg-53" edge="1">
          <mxGeometry relative="1" as="geometry">
            <mxPoint x="64" y="1048.9999999999998" as="sourcePoint" />
          </mxGeometry>
        </mxCell>
        <mxCell id="pwK9RfVmoR3s9cLt3GSg-68" value="&lt;span style=&quot;color: rgb(51, 51, 51); font-family: &amp;quot;Times New Roman&amp;quot;; font-size: 20px; font-style: normal; font-variant-ligatures: normal; font-variant-caps: normal; letter-spacing: normal; orphans: 2; text-align: center; text-indent: 0px; text-transform: none; widows: 2; word-spacing: 0px; -webkit-text-stroke-width: 0px; background-color: rgb(255, 255, 255); text-decoration-thickness: initial; text-decoration-style: initial; text-decoration-color: initial; float: none; display: inline !important;&quot;&gt;&lt;b&gt;AXI&lt;/b&gt;&lt;/span&gt;" style="text;whiteSpace=wrap;html=1;" parent="1" vertex="1">
          <mxGeometry x="310.99999999999994" y="1030" width="40.69" height="32.21" as="geometry" />
        </mxCell>
        <mxCell id="pwK9RfVmoR3s9cLt3GSg-76" style="edgeStyle=orthogonalEdgeStyle;rounded=0;orthogonalLoop=1;jettySize=auto;html=1;exitX=0.5;exitY=1;exitDx=0;exitDy=0;entryX=0.5;entryY=0;entryDx=0;entryDy=0;entryPerimeter=0;strokeWidth=2;" parent="1" source="pwK9RfVmoR3s9cLt3GSg-32" target="pwK9RfVmoR3s9cLt3GSg-39" edge="1">
          <mxGeometry relative="1" as="geometry" />
        </mxCell>
        <mxCell id="pwK9RfVmoR3s9cLt3GSg-78" value="&lt;font size=&quot;1&quot; face=&quot;Times New Roman&quot;&gt;&lt;b style=&quot;font-size: 30px;&quot;&gt;Buffer&lt;/b&gt;&lt;/font&gt;" style="rounded=1;whiteSpace=wrap;html=1;flipH=0;flipV=1;" parent="1" vertex="1">
          <mxGeometry x="2042" y="285.5" width="128" height="75" as="geometry" />
        </mxCell>
        <mxCell id="pwK9RfVmoR3s9cLt3GSg-81" value="&lt;b&gt;&lt;font style=&quot;font-size: 15px;&quot;&gt;433.92MHz Signal&lt;/font&gt;&lt;/b&gt;" style="shape=mxgraph.signs.tech.rss;html=1;pointerEvents=1;fillColor=#000000;strokeColor=none;verticalLabelPosition=bottom;verticalAlign=top;align=center;sketch=0;aspect=fixed;flipH=0;flipV=1;" parent="1" vertex="1">
          <mxGeometry x="1542" y="299" width="50" height="50" as="geometry" />
        </mxCell>
        <mxCell id="ViVVrlRUVqNIaIjdkwC9-28" value="&lt;span style=&quot;font-size: 28px;&quot;&gt;&lt;b&gt;&lt;font face=&quot;Times New Roman&quot;&gt;HT12D&lt;/font&gt;&lt;/b&gt;&lt;/span&gt;" style="rounded=1;whiteSpace=wrap;html=1;" parent="1" vertex="1">
          <mxGeometry x="1850" y="285.5" width="128" height="75" as="geometry" />
        </mxCell>
        <mxCell id="pwK9RfVmoR3s9cLt3GSg-102" style="rounded=0;orthogonalLoop=1;jettySize=auto;html=1;exitX=1;exitY=1;exitDx=0;exitDy=0;entryX=0;entryY=0;entryDx=0;entryDy=0;fillColor=#fff2cc;strokeColor=#000000;strokeWidth=4;" parent="1" source="pwK9RfVmoR3s9cLt3GSg-85" target="ViVVrlRUVqNIaIjdkwC9-41" edge="1">
          <mxGeometry relative="1" as="geometry">
            <mxPoint x="2466" y="639" as="targetPoint" />
          </mxGeometry>
        </mxCell>
        <mxCell id="pwK9RfVmoR3s9cLt3GSg-111" style="rounded=0;orthogonalLoop=1;jettySize=auto;html=1;exitX=1;exitY=1;exitDx=0;exitDy=0;entryX=0;entryY=0;entryDx=0;entryDy=0;fillColor=#dae8fc;strokeColor=#6c8ebf;strokeWidth=2;" parent="1" source="pwK9RfVmoR3s9cLt3GSg-85" target="ViVVrlRUVqNIaIjdkwC9-45" edge="1">
          <mxGeometry relative="1" as="geometry" />
        </mxCell>
        <mxCell id="pwK9RfVmoR3s9cLt3GSg-85" value="&lt;font face=&quot;標楷體&quot;&gt;&lt;span style=&quot;font-size: 22px;&quot;&gt;&lt;b&gt;暫存&lt;/b&gt;&lt;/span&gt;&lt;/font&gt;" style="rounded=0;whiteSpace=wrap;html=1;" parent="1" vertex="1">
          <mxGeometry x="2091" y="575.5" width="30" height="70" as="geometry" />
        </mxCell>
        <mxCell id="pwK9RfVmoR3s9cLt3GSg-92" value="&lt;font face=&quot;Times New Roman&quot;&gt;&lt;span style=&quot;font-size: 70px;&quot;&gt;&lt;b&gt;PL&lt;/b&gt;&lt;/span&gt;&lt;/font&gt;" style="rounded=1;whiteSpace=wrap;html=1;fillColor=#f5f5f5;strokeColor=#666666;fontColor=#333333;" parent="1" vertex="1">
          <mxGeometry x="-65" y="88" width="130" height="74.5" as="geometry" />
        </mxCell>
        <mxCell id="pwK9RfVmoR3s9cLt3GSg-93" value="&lt;b style=&quot;border-color: var(--border-color);&quot;&gt;&lt;font style=&quot;border-color: var(--border-color); font-size: 44px;&quot; face=&quot;Times New Roman&quot;&gt;Buffer&lt;/font&gt;&lt;/b&gt;" style="rounded=1;whiteSpace=wrap;html=1;flipH=0;flipV=1;" parent="1" vertex="1">
          <mxGeometry x="-65" y="354" width="128" height="75" as="geometry" />
        </mxCell>
        <mxCell id="pwK9RfVmoR3s9cLt3GSg-94" value="" style="endArrow=none;html=1;rounded=0;entryX=0.5;entryY=1;entryDx=0;entryDy=0;exitX=0.5;exitY=0;exitDx=0;exitDy=0;" parent="1" source="pwK9RfVmoR3s9cLt3GSg-93" target="pwK9RfVmoR3s9cLt3GSg-92" edge="1">
          <mxGeometry width="50" height="50" relative="1" as="geometry">
            <mxPoint x="-200" y="476.5" as="sourcePoint" />
            <mxPoint x="-150" y="426.5" as="targetPoint" />
          </mxGeometry>
        </mxCell>
        <mxCell id="pwK9RfVmoR3s9cLt3GSg-96" style="edgeStyle=orthogonalEdgeStyle;rounded=0;orthogonalLoop=1;jettySize=auto;html=1;exitX=0.75;exitY=1;exitDx=0;exitDy=0;entryX=0.912;entryY=-0.006;entryDx=0;entryDy=0;entryPerimeter=0;fillColor=#dae8fc;strokeColor=#6c8ebf;strokeWidth=2;" parent="1" source="pwK9RfVmoR3s9cLt3GSg-52" target="pwK9RfVmoR3s9cLt3GSg-60" edge="1">
          <mxGeometry relative="1" as="geometry" />
        </mxCell>
        <mxCell id="pwK9RfVmoR3s9cLt3GSg-98" style="edgeStyle=orthogonalEdgeStyle;rounded=0;orthogonalLoop=1;jettySize=auto;html=1;exitX=0.25;exitY=1;exitDx=0;exitDy=0;entryX=0.737;entryY=-0.002;entryDx=0;entryDy=0;entryPerimeter=0;strokeWidth=2;fillColor=#fff2cc;strokeColor=#d6b656;" parent="1" source="pwK9RfVmoR3s9cLt3GSg-52" target="pwK9RfVmoR3s9cLt3GSg-60" edge="1">
          <mxGeometry relative="1" as="geometry" />
        </mxCell>
        <mxCell id="pwK9RfVmoR3s9cLt3GSg-99" value="&lt;span style=&quot;color: rgb(0, 0, 153); font-family: Helvetica; font-style: normal; font-variant-ligatures: normal; font-variant-caps: normal; letter-spacing: normal; orphans: 2; text-align: center; text-indent: 0px; text-transform: none; widows: 2; word-spacing: 0px; -webkit-text-stroke-width: 0px; background-color: rgb(255, 255, 255); text-decoration-thickness: initial; text-decoration-style: initial; text-decoration-color: initial; float: none; display: inline !important;&quot;&gt;&lt;font style=&quot;font-size: 16px;&quot;&gt;&lt;b&gt;*data*&lt;/b&gt;&lt;/font&gt;&lt;br&gt;&lt;span style=&quot;font-weight: 400; font-size: 11px;&quot;&gt;rx_data=GPIO[14],&lt;/span&gt;&lt;/span&gt;&lt;span style=&quot;color: rgb(0, 0, 153); font-family: Helvetica; font-size: 11px; font-style: normal; font-variant-ligatures: normal; font-variant-caps: normal; font-weight: 400; letter-spacing: normal; orphans: 2; text-align: center; text-indent: 0px; text-transform: none; widows: 2; word-spacing: 0px; -webkit-text-stroke-width: 0px; background-color: rgb(255, 255, 255); text-decoration-thickness: initial; text-decoration-style: initial; text-decoration-color: initial; float: none; display: inline !important;&quot;&gt;GPIO[15],&lt;/span&gt;&lt;span style=&quot;color: rgb(0, 0, 153); font-family: Helvetica; font-size: 11px; font-style: normal; font-variant-ligatures: normal; font-variant-caps: normal; font-weight: 400; letter-spacing: normal; orphans: 2; text-align: center; text-indent: 0px; text-transform: none; widows: 2; word-spacing: 0px; -webkit-text-stroke-width: 0px; background-color: rgb(255, 255, 255); text-decoration-thickness: initial; text-decoration-style: initial; text-decoration-color: initial; float: none; display: inline !important;&quot;&gt;GPIO[18],&lt;/span&gt;&lt;span style=&quot;color: rgb(0, 0, 153); font-family: Helvetica; font-size: 11px; font-style: normal; font-variant-ligatures: normal; font-variant-caps: normal; font-weight: 400; letter-spacing: normal; orphans: 2; text-align: center; text-indent: 0px; text-transform: none; widows: 2; word-spacing: 0px; -webkit-text-stroke-width: 0px; background-color: rgb(255, 255, 255); text-decoration-thickness: initial; text-decoration-style: initial; text-decoration-color: initial; float: none; display: inline !important;&quot;&gt;GPIO[23]&lt;/span&gt;&lt;br style=&quot;border-color: var(--border-color); color: rgb(0, 0, 153); font-family: Helvetica; font-size: 11px; font-style: normal; font-variant-ligatures: normal; font-variant-caps: normal; font-weight: 400; letter-spacing: normal; orphans: 2; text-align: center; text-indent: 0px; text-transform: none; widows: 2; word-spacing: 0px; -webkit-text-stroke-width: 0px; background-color: rgb(255, 255, 255); text-decoration-thickness: initial; text-decoration-style: initial; text-decoration-color: initial;&quot;&gt;&lt;span style=&quot;color: rgb(0, 0, 153); font-family: Helvetica; font-size: 11px; font-style: normal; font-variant-ligatures: normal; font-variant-caps: normal; font-weight: 400; letter-spacing: normal; orphans: 2; text-align: center; text-indent: 0px; text-transform: none; widows: 2; word-spacing: 0px; -webkit-text-stroke-width: 0px; background-color: rgb(255, 255, 255); text-decoration-thickness: initial; text-decoration-style: initial; text-decoration-color: initial; float: none; display: inline !important;&quot;&gt;vaild_flag = GPIO[24]&lt;/span&gt;" style="text;whiteSpace=wrap;html=1;" parent="1" vertex="1">
          <mxGeometry x="1458" y="559" width="234" height="94" as="geometry" />
        </mxCell>
        <mxCell id="pwK9RfVmoR3s9cLt3GSg-101" style="rounded=0;orthogonalLoop=1;jettySize=auto;html=1;exitX=0;exitY=1;exitDx=0;exitDy=0;entryX=1;entryY=0;entryDx=0;entryDy=0;fillColor=#fff2cc;strokeColor=#d6b656;strokeWidth=2;" parent="1" source="ViVVrlRUVqNIaIjdkwC9-55" edge="1">
          <mxGeometry relative="1" as="geometry">
            <mxPoint x="2283" y="713" as="sourcePoint" />
            <mxPoint x="1737" y="783" as="targetPoint" />
          </mxGeometry>
        </mxCell>
        <mxCell id="ViVVrlRUVqNIaIjdkwC9-55" value="" style="rounded=0;whiteSpace=wrap;html=1;" parent="1" vertex="1">
          <mxGeometry x="2283" y="712" width="30" height="70" as="geometry" />
        </mxCell>
        <mxCell id="pwK9RfVmoR3s9cLt3GSg-103" value="&lt;b&gt;&lt;font face=&quot;標楷體&quot; style=&quot;font-size: 22px;&quot;&gt;傳送訊號&lt;/font&gt;&lt;/b&gt;" style="text;html=1;strokeColor=none;fillColor=none;align=center;verticalAlign=middle;whiteSpace=wrap;rounded=0;" parent="1" vertex="1">
          <mxGeometry x="2268" y="732" width="60" height="30" as="geometry" />
        </mxCell>
        <mxCell id="pwK9RfVmoR3s9cLt3GSg-112" style="rounded=0;orthogonalLoop=1;jettySize=auto;html=1;exitX=1;exitY=1;exitDx=0;exitDy=0;entryX=0;entryY=0;entryDx=0;entryDy=0;strokeWidth=2;fillColor=#fff2cc;strokeColor=#d6b656;" parent="1" source="pwK9RfVmoR3s9cLt3GSg-106" target="ViVVrlRUVqNIaIjdkwC9-76" edge="1">
          <mxGeometry relative="1" as="geometry" />
        </mxCell>
        <mxCell id="pwK9RfVmoR3s9cLt3GSg-106" value="&lt;font face=&quot;標楷體&quot;&gt;&lt;span style=&quot;font-size: 22px;&quot;&gt;&lt;b&gt;暫存&lt;/b&gt;&lt;/span&gt;&lt;/font&gt;" style="rounded=0;whiteSpace=wrap;html=1;" parent="1" vertex="1">
          <mxGeometry x="2091" y="922" width="30" height="70" as="geometry" />
        </mxCell>
        <mxCell id="pwK9RfVmoR3s9cLt3GSg-110" style="rounded=0;orthogonalLoop=1;jettySize=auto;html=1;exitX=1;exitY=1;exitDx=0;exitDy=0;entryX=0;entryY=0;entryDx=0;entryDy=0;" parent="1" edge="1">
          <mxGeometry relative="1" as="geometry">
            <mxPoint x="2697" y="1062" as="sourcePoint" />
            <mxPoint x="2859" y="1062" as="targetPoint" />
          </mxGeometry>
        </mxCell>
        <mxCell id="pwK9RfVmoR3s9cLt3GSg-126" value="&lt;font size=&quot;1&quot; color=&quot;#000099&quot;&gt;&lt;b style=&quot;font-size: 16px;&quot;&gt;rx_data = [3:0]&lt;/b&gt;&lt;/font&gt;" style="edgeLabel;html=1;align=center;verticalAlign=middle;resizable=0;points=[];" parent="1" vertex="1" connectable="0">
          <mxGeometry x="2215.9976470588235" y="642.0000000000002" as="geometry" />
        </mxCell>
        <mxCell id="pwK9RfVmoR3s9cLt3GSg-127" value="&lt;font color=&quot;#333300&quot; size=&quot;1&quot;&gt;&lt;b style=&quot;font-size: 16px;&quot;&gt;RF Signal&lt;/b&gt;&lt;/font&gt;" style="edgeLabel;html=1;align=center;verticalAlign=middle;resizable=0;points=[];" parent="1" vertex="1" connectable="0">
          <mxGeometry x="2404.9976470588235" y="712.0000000000002" as="geometry" />
        </mxCell>
        <mxCell id="pwK9RfVmoR3s9cLt3GSg-128" value="&lt;font size=&quot;1&quot;&gt;&lt;b style=&quot;font-size: 16px;&quot;&gt;RF Signal&lt;/b&gt;&lt;/font&gt;" style="edgeLabel;html=1;align=center;verticalAlign=middle;resizable=0;points=[];" parent="1" vertex="1" connectable="0">
          <mxGeometry x="1812.9976470588235" y="504.0000000000002" as="geometry" />
        </mxCell>
        <mxCell id="pwK9RfVmoR3s9cLt3GSg-129" value="&lt;font color=&quot;#333300&quot; size=&quot;1&quot;&gt;&lt;b style=&quot;font-size: 16px;&quot;&gt;RF Signal&lt;/b&gt;&lt;/font&gt;" style="edgeLabel;html=1;align=center;verticalAlign=middle;resizable=0;points=[];" parent="1" vertex="1" connectable="0">
          <mxGeometry x="2204.9976470588235" y="782.0000000000002" as="geometry" />
        </mxCell>
        <mxCell id="pwK9RfVmoR3s9cLt3GSg-130" value="&lt;font color=&quot;#333300&quot; size=&quot;1&quot;&gt;&lt;b style=&quot;font-size: 16px;&quot;&gt;RF Signal&lt;/b&gt;&lt;/font&gt;" style="edgeLabel;html=1;align=center;verticalAlign=middle;resizable=0;points=[];" parent="1" vertex="1" connectable="0">
          <mxGeometry x="1790.9976470588235" y="852.0000000000002" as="geometry" />
        </mxCell>
        <mxCell id="pwK9RfVmoR3s9cLt3GSg-131" value="&lt;font size=&quot;1&quot; color=&quot;#000099&quot;&gt;&lt;b style=&quot;font-size: 16px;&quot;&gt;*data*&lt;/b&gt;&lt;/font&gt;" style="edgeLabel;html=1;align=center;verticalAlign=middle;resizable=0;points=[];" parent="1" vertex="1" connectable="0">
          <mxGeometry x="1995.996666666667" y="922" as="geometry" />
        </mxCell>
        <mxCell id="pwK9RfVmoR3s9cLt3GSg-132" value="&lt;font size=&quot;1&quot; color=&quot;#000099&quot;&gt;&lt;b style=&quot;font-size: 16px;&quot;&gt;rx_data = [3:0]&lt;/b&gt;&lt;/font&gt;" style="edgeLabel;html=1;align=center;verticalAlign=middle;resizable=0;points=[];" parent="1" vertex="1" connectable="0">
          <mxGeometry x="2215.9976470588235" y="989.0000000000002" as="geometry" />
        </mxCell>
        <mxCell id="pwK9RfVmoR3s9cLt3GSg-133" style="rounded=0;orthogonalLoop=1;jettySize=auto;html=1;entryX=-0.007;entryY=0.521;entryDx=0;entryDy=0;entryPerimeter=0;" parent="1" target="ViVVrlRUVqNIaIjdkwC9-27" edge="1">
          <mxGeometry relative="1" as="geometry">
            <mxPoint x="1603" y="324" as="sourcePoint" />
          </mxGeometry>
        </mxCell>
        <mxCell id="I1XogO5tkQjLGIpYj2J2-1" value="&lt;div style=&quot;text-align: center;&quot;&gt;&lt;font face=&quot;Times New Roman&quot; color=&quot;#333333&quot;&gt;&lt;span style=&quot;font-size: 20px; background-color: rgb(255, 255, 255);&quot;&gt;&lt;b&gt;UART&lt;/b&gt;&lt;/span&gt;&lt;/font&gt;&lt;/div&gt;" style="text;whiteSpace=wrap;html=1;" parent="1" vertex="1">
          <mxGeometry x="394" y="889.79" width="40.69" height="32.21" as="geometry" />
        </mxCell>
      </root>
    </mxGraphModel>
  </diagram>
</mxfile>
